<svg xmlns="http://www.w3.org/2000/svg" width="35.121" height="28.541" viewBox="0 0 35.121 28.541">
  <g id="icons8-twitter-filled" transform="translate(0.059 -5.617)">
    <path id="Path_2" data-name="Path 2" d="M35.062,8.995a14.414,14.414,0,0,1-4.141,1.136,7.223,7.223,0,0,0,3.17-3.985,14.468,14.468,0,0,1-4.577,1.746,7.209,7.209,0,0,0-12.276,6.572A20.46,20.46,0,0,1,2.386,6.934a7.221,7.221,0,0,0,2.231,9.624,7.2,7.2,0,0,1-3.265-.9v.09a7.215,7.215,0,0,0,5.778,7.068,7.212,7.212,0,0,1-1.9.252,6.941,6.941,0,0,1-1.358-.131,7.222,7.222,0,0,0,6.731,5.006,14.444,14.444,0,0,1-8.948,3.082,14.175,14.175,0,0,1-1.716-.1,20.358,20.358,0,0,0,11.045,3.238c13.254,0,20.5-10.979,20.5-20.5,0-.312-.008-.627-.019-.933A14.648,14.648,0,0,0,35.062,8.995Z"/>
  </g>
</svg>
